<svg width="42" height="42" viewBox="0 0 256 255" xmlns="http://www.w3.org/2000/svg">
  <defs>
    <linearGradient id="pythonGradient" x1="0%" y1="0%" x2="100%" y2="100%">
      <stop offset="0%" style="stop-color:#387EB8;stop-opacity:1" />
      <stop offset="100%" style="stop-color:#FFE052;stop-opacity:1" />
    </linearGradient>
  </defs>
  <path fill="url(#pythonGradient)" d="M126.916.02c-10.64.047-20.8.958-29.836 2.59-26.39 4.727-31.165 14.61-31.165 32.844v24.06h62.42v7.987H50.142c-18.78 0-35.272 11.247-40.396 32.595-5.933 24.586-6.2 39.928 0 65.545 4.597 19.15 15.625 32.595 34.406 32.595h22.603v-30.153c0-21.78 18.825-40.935 40.396-40.935h62.383c18.018 0 31.165-14.77 31.165-32.843V35.454c0-17.573-13.557-30.15-31.165-32.844A187.507 187.507 0 0 0 126.916.02Zm-34.997 20.03c6.574 0 11.94 5.456 11.94 12.173 0 6.72-5.367 12.174-11.94 12.174-6.574 0-11.94-5.455-11.94-12.174 0-6.717 5.366-12.173 11.94-12.173Zm128.28 58.49v29.722c0 22.36-18.895 41.047-40.396 41.047h-62.384c-17.09 0-31.164 14.894-31.164 32.844v61.997c0 17.573 14.516 27.957 31.164 32.844 19.714 5.797 38.595 6.854 62.384 0 15.73-4.553 31.165-13.702 31.165-32.844v-24.06h-62.384v-7.987h94.59c18.78 0 25.793-13.102 31.165-32.595 6.51-21.32 6.23-41.791 0-65.545-4.647-18.522-12.373-32.595-31.165-32.595h-22.604ZM163.67 200.31c6.573 0 11.94 5.454 11.94 12.174s-5.367 12.174-11.94 12.174c-6.574 0-11.94-5.454-11.94-12.174s5.366-12.174 11.94-12.174Z"/>
</svg>
